# xmcd
#
# Track frame offsets:
#	150
#	19540
#	32984
#	50158
#	63837
#	80496
#	97833
#	115844
#	130604
#	145772
#	161742
#	178733
#	198233
#	215199
#	229297
#	246896
#	263487
#	280443
#	296806
#	313641
#	326856
#
# Disc length: 4625 seconds
#
# Revision: 1
# Processed by: cddbd v1.5.2PL0 Copyright (c) Steve Scherf et al.
# Submitted via: audiograbber 1.83.01
#
DISCID=3c120f15
DTITLE=Various Artist - ERG Nu Country Traxx vol 120
DYEAR=2009
DGENRE=
TTITLE0=Brad Paisley - Then
TTITLE1=Gretchen WIlson - The Earrings Song
TTITLE2=Keith Urban - Kiss A Girl
TTITLE3=Randy Travis - Turn It Around
TTITLE4=Caitlin and Will - Address In The Stars
TTITLE5=Miley Cyrus - The Climb
TTITLE6=Lee Ann Womack - Solitary Thinkin'
TTITLE7=Jo Dee Messina - Shine
TTITLE8=Cody McCarver - Look What You've Done
TTITLE9=Jack Ingram - Barefoot and Crazy
TTITLE10=Jessica Simpson - Pray Out Loud
TTITLE11=Carrie Underwood (f. Randy Travis) - I Told You So
TTITLE12=Cledus T Judd - Waitin' On Obama
TTITLE13=Mark Chesnutt - She Never Got Me Over You
TTITLE14=Daryle Singletary - Love You With The Lights On
TTITLE15=Neil Carswell - Bright Lights
TTITLE16=Lance Miller - George Jones and Jesus
TTITLE17=Emily West - That Kind Of Happy
TTITLE18=Gord Barnford - Little Guy
TTITLE19=Lisa Brokop - Shackin' Up
TTITLE20=Alex J Robinson - The Other Woman
EXTD=
EXTT0=
EXTT1=
EXTT2=
EXTT3=
EXTT4=
EXTT5=
EXTT6=
EXTT7=
EXTT8=
EXTT9=
EXTT10=
EXTT11=
EXTT12=
EXTT13=
EXTT14=
EXTT15=
EXTT16=
EXTT17=
EXTT18=
EXTT19=
EXTT20=
PLAYORDER=
